HIERARCHY
ROOT Hips
{
	OFFSET 0.00000 0.00000 0.00000
	CHANNELS 6 Xposition Yposition Zposition Yrotation Zrotation Xrotation 
	JOINT Lumbar
	{
		OFFSET 0 0 0
		CHANNELS 3 Zrotation Xrotation Yrotation
		JOINT Neck
		{
			OFFSET 0.00 0.2701 0.00
			CHANNELS 3 Zrotation Xrotation Yrotation
			End Site
			{
				OFFSET 0.00 0.1379 0.00
			}
		}
		JOINT RightShoulder
		{
			OFFSET 0.0119 0.2289 0.1181
			CHANNELS 3 Zrotation Xrotation Yrotation
			JOINT RightElbow
			{
				OFFSET 0.00 -0.1475 0.00
				CHANNELS 2 Zrotation Yrotation
				JOINT RightWrist
				{
					OFFSET 0.00 -0.1605 0.00
					CHANNELS 2 Zrotation Xrotation
					End Site
					{
						OFFSET 0.0040 -0.1068 0.0006
					}
				}
			}
		}
		JOINT LeftShoulder
		{
			OFFSET 0.0119 0.2289 -0.1181
			CHANNELS 3 Zrotation Xrotation Yrotation
			JOINT LeftElbow
			{
				OFFSET 0.00 -0.1475 0.00
				CHANNELS 2 Zrotation Yrotation
				JOINT LeftWrist
				{
					OFFSET 0.00 -0.1605 0.00
					CHANNELS 2 Zrotation Xrotation
					End Site
					{
						OFFSET 0.0040 -0.1068 -0.0006
					}
				}
			}
		}
	}
	JOINT RightHip
	{
		OFFSET 0.0316 -0.0424 0.0458
		CHANNELS 3 Zrotation Xrotation Yrotation
		JOINT RightKnee
		{
			OFFSET 0.00 -0.2438 0.00
			CHANNELS 1 Zrotation
			JOINT RightAnkle
			{
				OFFSET 0.00 -0.2449 0.00
				CHANNELS 3 Zrotation Xrotation Yrotation
				End Site
				{
					OFFSET 0.1237 -0.0542 0.0051
				}
			}
		}
	}
	JOINT LeftHip
	{
		OFFSET 0.0316 -0.0424 -0.0458
		CHANNELS 3 Zrotation Xrotation Yrotation
		JOINT LeftKnee
		{
			OFFSET 0.00 -0.2438 0.00
			CHANNELS 1 Zrotation
			JOINT LeftAnkle
			{
				OFFSET 0.00 -0.2449 0.00
				CHANNELS 3 Zrotation Xrotation Yrotation
				End Site
				{
					OFFSET 0.1237 -0.0542 -0.0051
				}
			}
		}
	}
}
MOTION
Frames: 14
Frame Time: 0.02
0 0.57926 0 177.48573 0 4.85996 9.38164 -3.24788 -0.89612 -35.75286 3.76128 3.92391 26.25328 -15.21923 6.2379 10.47707 84.92393 1.68998 1.95101 30.1006 3.0742 -20.49367 7.53638 -61.47354 -5.58264 -6.25938 1.54589 1.70978 15.2777 -22.48496 12.52618 -11.21662 -15.27139 0.20602 -5.98439 -9.84983 -15.37441 7.47965 7.72747 12.71397
5e-05 0.5796 5e-05 177.37961 0 4.57711 9.5061 -2.98496 -0.82092 -36.3976 3.8761 4.1725 26.82095 -15.49121 6.33559 10.41403 84.95452 1.74734 2.02273 30.81267 2.79562 -20.73023 7.40603 -61.19404 -5.56833 -6.21092 1.42599 1.90481 14.96407 -22.09939 12.27541 -11.02447 -15.08337 0.22037 -5.72674 -9.83944 -15.43537 7.52029 7.75353 12.81605
0.0001 0.57994 9e-05 177.27435 0 4.29761 9.62898 -2.72519 -0.74691 -37.0348 3.98941 4.41812 27.38206 -15.75987 6.43229 10.35184 84.98496 1.80414 2.09372 31.51629 2.52055 -20.96408 7.27742 -60.91609 -5.55438 -6.16291 1.30775 2.09763 14.65466 -21.71899 12.02783 -10.83471 -14.89766 0.23478 -5.47218 -9.82884 -15.49626 7.56074 7.77936 12.91701
0.00014 0.58026 0.00014 177.17193 0 4.02976 9.74643 -2.47644 -0.67724 -37.64627 4.0973 4.65361 27.92069 -16.01697 6.52556 10.29256 85.01508 1.85913 2.16271 32.19103 2.2577 -21.18887 7.15491 -60.63746 -5.54224 -6.11591 1.19506 2.28273 14.35994 -21.35599 11.79114 -10.65292 -14.72004 0.24918 -5.22833 -9.81765 -15.55658 7.60039 7.80422 13.01423
0.0002 0.58066 0.00019 177.05502 0 3.70144 9.8923 -2.17055 -0.58493 -38.39179 4.23328 4.94195 28.57627 -16.33414 6.63651 10.21803 85.04688 1.92357 2.24253 33.01626 1.93126 -21.46102 7.00062 -60.35743 -5.5211 -6.06317 1.05303 2.50777 13.98854 -20.9014 11.49748 -10.42929 -14.50043 0.26318 -4.92882 -9.81001 -15.61885 7.64377 7.83384 13.13099
0.00023 0.58089 0.00022 176.9685 0 3.50049 9.97816 -1.98499 -0.54035 -38.85456 4.31013 5.11879 28.98526 -16.52476 6.7103 10.17572 85.07512 1.96803 2.29922 33.5241 1.73886 -21.63318 6.91333 -60.08406 -5.5186 -6.0229 0.97317 2.6488 13.7789 -20.64058 11.32413 -10.29411 -14.36924 0.2783 -4.74659 -9.79463 -15.67767 7.67957 7.85365 13.20649
0.00016 0.58066 0.00015 176.96953 0 3.66576 9.89242 -2.14566 -0.63335 -38.50815 4.21642 4.97671 28.68784 -16.35168 6.67676 10.22531 85.09357 1.95616 2.29274 33.12316 1.93123 -21.52008 7.01841 -59.79304 -5.57297 -6.01477 1.06952 2.54735 14.03212 -20.93078 11.49442 -10.41044 -14.49183 0.29467 -4.90118 -9.75878 -15.72214 7.69175 7.84347 13.16456
6e-05 0.58027 5e-05 177.00052 0 3.95699 9.7471 -2.42528 -0.77351 -37.88144 4.06431 4.72412 28.14611 -16.05344 6.60649 10.30693 85.10837 1.92438 2.26284 32.40771 2.25627 -21.30783 7.18982 -59.51482 -5.64522 -6.01957 1.22792 2.36291 14.4452 -21.4139 11.78424 -10.61478 -14.70147 0.31261 -5.17181 -9.71496 -15.76422 7.69686 7.82395 13.08164
-2e-05 0.57997 -4e-05 177.01552 0 4.18162 9.63274 -2.64185 -0.88857 -37.40049 3.94345 4.52882 27.73195 -15.8213 6.55611 10.37208 85.12488 1.90242 2.24312 31.85608 2.51156 -21.14646 7.32631 -59.25414 -5.7059 -6.01997 1.35508 2.22309 14.77591 -21.7989 12.0122 -10.77442 -14.86597 0.33098 -5.38128 -9.67414 -15.81039 7.70689 7.81055 13.01962
-0.00011 0.57962 -0.00014 177.04077 0 4.44637 9.50195 -2.89702 -1.01938 -36.84059 3.80246 4.30292 27.24683 -15.54961 6.4924 10.44541 85.14138 1.87702 2.22515 31.21459 2.80742 -20.9596 7.48323 -58.89585 -5.78116 -6.01435 1.495 2.05408 15.15068 -22.22838 12.27203 -10.95424 -15.05643 0.34423 -5.62686 -9.63585 -15.84323 7.70943 7.78909 12.94776
-0.0002 0.57932 -0.00021 177.05149 0 4.65665 9.39129 -3.09924 -1.12822 -36.38033 3.68982 4.11546 26.8529 -15.3314 6.44752 10.5092 85.15681 1.8543 2.19825 30.68771 3.04945 -20.80342 7.61302 -58.74273 -5.83023 -6.0241 1.62319 1.92623 15.46783 -22.61052 12.49378 -11.11251 -15.21043 0.36888 -5.82409 -9.59051 -15.9041 7.72623 7.78235 12.88699
-0.00027 0.57922 -0.00022 177.01729 0 4.69334 9.34979 -3.13344 -1.16842 -36.24729 3.66708 4.05252 26.75742 -15.28362 6.46539 10.53985 85.1722 1.84162 2.15 30.5343 3.11824 -20.74568 7.65504 -59.16309 -5.80339 -6.07522 1.70345 1.93162 15.62026 -22.82038 12.58256 -11.1937 -15.26947 0.42219 -5.86581 -9.52634 -16.03684 7.78151 7.81742 12.86348
-0.00033 0.57918 -0.00019 176.96706 0 4.66972 9.33043 -3.10914 -1.1844 -36.22634 3.6752 4.03329 26.76388 -15.29505 6.5032 10.55974 85.18635 1.83271 2.09401 30.50981 3.12731 -20.72367 7.66714 -59.78771 -5.74953 -6.14097 1.77023 1.98135 15.70346 -22.97579 12.62894 -11.24964 -15.2842 0.48778 -5.8539 -9.45532 -16.19969 7.85206 7.86789 12.85283
-0.0004 0.57911 -0.00018 176.92239 0 4.66836 9.30208 -3.1065 -1.20894 -36.16611 3.67117 4.00024 26.73318 -15.28503 6.53059 10.58373 85.19965 1.82359 2.04323 30.44061 3.15792 -20.69288 7.69036 -60.31204 -5.70739 -6.19864 1.84292 2.01138 15.7957 -23.15132 12.69342 -11.31424 -15.30092 0.54887 -5.86204 -9.3887 -16.35193 7.91711 7.91196 12.839
